Griffith_Gothic-Condensed_Ultra.ufo
<glyph name="parenleft" format="1">
  <advance width="335"/>
  <unicode hex="0028"/>
  <outline>
    <contour>
      <point x="332" y="-95" type="curve"/>
      <point x="187" y="-95" type="line"/>
      <point x="97" y="4"/>
      <point x="24" y="136"/>
      <point x="24" y="320" type="curve" smooth="yes"/>
      <point x="24" y="504"/>
      <point x="97" y="636"/>
      <point x="187" y="735" type="curve"/>
      <point x="332" y="735" type="line"/>
      <point x="233" y="594"/>
      <point x="199" y="463"/>
      <point x="199" y="320" type="curve" smooth="yes"/>
      <point x="199" y="177"/>
      <point x="233" y="46"/>
    </contour>
  </outline>
</glyph>
<glyph name="asterisk" format="1">
  <advance width="330"/>
  <unicode hex="002A"/>
  <outline>
    <contour>
      <point x="318" y="568" type="line"/>
      <point x="207" y="571" type="line"/>
      <point x="302" y="508" type="line"/>
      <point x="200" y="433" type="line"/>
      <point x="165" y="545" type="line"/>
      <point x="130" y="433" type="line"/>
      <point x="28" y="508" type="line"/>
      <point x="123" y="571" type="line"/>
      <point x="12" y="568" type="line"/>
      <point x="51" y="687" type="line"/>
      <point x="141" y="614" type="line"/>
      <point x="101" y="720" type="line"/>
      <point x="229" y="720" type="line"/>
      <point x="189" y="614" type="line"/>
      <point x="279" y="687" type="line"/>
    </contour>
  </outline>
</glyph>
<glyph name="plus" format="1">
  <advance width="479"/>
  <unicode hex="002B"/>
  <outline>
    <contour>
      <point x="457" y="281" type="line"/>
      <point x="319" y="281" type="line"/>
      <point x="319" y="88" type="line"/>
      <point x="160" y="88" type="line"/>
      <point x="160" y="281" type="line"/>
      <point x="22" y="281" type="line"/>
      <point x="22" y="429" type="line"/>
      <point x="160" y="429" type="line"/>
      <point x="160" y="622" type="line"/>
      <point x="319" y="622" type="line"/>
      <point x="319" y="429" type="line"/>
      <point x="457" y="429" type="line"/>
    </contour>
  </outline>
</glyph>
<glyph name="comma" format="1">
  <advance width="238"/>
  <unicode hex="002C"/>
  <outline>
    <contour>
      <point x="223" y="178" type="line"/>
      <point x="107" y="-113" type="line"/>
      <point x="24" y="-113" type="line"/>
      <point x="46" y="178" type="line"/>
    </contour>
  </outline>
</glyph>
<glyph name="slash" format="1">
  <advance width="385"/>
  <unicode hex="002F"/>
  <outline>
    <contour>
      <point x="380" y="735" type="line"/>
      <point x="134" y="-95" type="line"/>
      <point x="-19" y="-95" type="line"/>
      <point x="227" y="735" type="line"/>
    </contour>
  </outline>
</glyph>
<glyph name="one" format="1">
  <advance width="350"/>
  <unicode hex="0031"/>
  <outline>
    <contour>
      <point x="341" y="0" type="line"/>
      <point x="24" y="0" type="line"/>
      <point x="24" y="120" type="line"/>
      <point x="95" y="120" type="line"/>
      <point x="95" y="600" type="line"/>
      <point x="14" y="600" type="line"/>
      <point x="14" y="720" type="line"/>
      <point x="278" y="720" type="line"/>
      <point x="278" y="120" type="line"/>
      <point x="341" y="120" type="line"/>
    </contour>
  </outline>
</glyph>
<glyph name="two" format="1">
  <advance width="463"/>
  <unicode hex="0032"/>
  <outline>
    <contour>
      <point x="449" y="0" type="line"/>
      <point x="14" y="0" type="line"/>
      <point x="14" y="120" type="line"/>
      <point x="40" y="211"/>
      <point x="76" y="266"/>
      <point x="182" y="365" type="curve" smooth="yes"/>
      <point x="246" y="425"/>
      <point x="265" y="461"/>
      <point x="265" y="521" type="curve" smooth="yes"/>
      <point x="265" y="563"/>
      <point x="253" y="581"/>
      <point x="229" y="581" type="curve" smooth="yes"/>
      <point x="201" y="581"/>
      <point x="181" y="555"/>
      <point x="165" y="459" type="curve"/>
      <point x="6" y="510" type="line"/>
      <point x="40" y="678"/>
      <point x="113" y="732"/>
      <point x="233" y="732" type="curve" smooth="yes"/>
      <point x="377" y="732"/>
      <point x="447" y="650"/>
      <point x="447" y="521" type="curve" smooth="yes"/>
      <point x="447" y="393"/>
      <point x="372" y="323"/>
      <point x="302" y="263" type="curve" smooth="yes"/>
      <point x="246" y="216"/>
      <point x="219" y="180"/>
      <point x="204" y="149" type="curve"/>
      <point x="449" y="149" type="line"/>
    </contour>
  </outline>
</glyph>
<glyph name="four" format="1">
  <advance width="486"/>
  <unicode hex="0034"/>
  <outline>
    <contour>
      <point x="476" y="173" type="line"/>
      <point x="418" y="173" type="line"/>
      <point x="418" y="0" type="line"/>
      <point x="236" y="0" type="line"/>
      <point x="236" y="173" type="line"/>
      <point x="12" y="173" type="line"/>
      <point x="12" y="288" type="line"/>
      <point x="201" y="720" type="line"/>
      <point x="418" y="720" type="line"/>
      <point x="418" y="275" type="line"/>
      <point x="476" y="275" type="line"/>
    </contour>
    <contour>
      <point x="236" y="275" type="line"/>
      <point x="236" y="534" type="line"/>
      <point x="231" y="534" type="line"/>
      <point x="127" y="281" type="line"/>
      <point x="127" y="275" type="line"/>
    </contour>
  </outline>
</glyph>
<glyph name="five" format="1">
  <advance width="483"/>
  <unicode hex="0035"/>
  <outline>
    <contour>
      <point x="468" y="251" type="line" smooth="yes"/>
      <point x="468" y="54"/>
      <point x="369" y="-10"/>
      <point x="219" y="-10" type="curve" smooth="yes"/>
      <point x="135" y="-10"/>
      <point x="83" y="6"/>
      <point x="5" y="47" type="curve"/>
      <point x="67" y="188" type="line"/>
      <point x="127" y="155"/>
      <point x="159" y="144"/>
      <point x="202" y="144" type="curve" smooth="yes"/>
      <point x="255" y="144"/>
      <point x="277" y="172"/>
      <point x="277" y="249" type="curve" smooth="yes"/>
      <point x="277" y="256" type="line" smooth="yes"/>
      <point x="277" y="328"/>
      <point x="262" y="353"/>
      <point x="230" y="353" type="curve" smooth="yes"/>
      <point x="200" y="353"/>
      <point x="176" y="331"/>
      <point x="165" y="313" type="curve"/>
      <point x="40" y="313" type="line"/>
      <point x="62" y="720" type="line"/>
      <point x="435" y="720" type="line"/>
      <point x="435" y="560" type="line"/>
      <point x="190" y="560" type="line"/>
      <point x="182" y="434" type="line"/>
      <point x="185" y="434" type="line"/>
      <point x="200" y="459"/>
      <point x="238" y="487"/>
      <point x="293" y="487" type="curve" smooth="yes"/>
      <point x="398" y="487"/>
      <point x="468" y="427"/>
      <point x="468" y="270" type="curve" smooth="yes"/>
    </contour>
  </outline>
</glyph>
<glyph name="semicolon" format="1">
  <advance width="248"/>
  <unicode hex="003B"/>
  <outline>
    <contour>
      <point x="224" y="454" type="curve" smooth="yes"/>
      <point x="224" y="400"/>
      <point x="183" y="359"/>
      <point x="129" y="359" type="curve" smooth="yes"/>
      <point x="75" y="359"/>
      <point x="34" y="400"/>
      <point x="34" y="454" type="curve" smooth="yes"/>
      <point x="34" y="508"/>
      <point x="75" y="549"/>
      <point x="129" y="549" type="curve" smooth="yes"/>
      <point x="183" y="549"/>
      <point x="224" y="508"/>
    </contour>
    <contour>
      <point x="223" y="178" type="line"/>
      <point x="107" y="-113" type="line"/>
      <point x="24" y="-113" type="line"/>
      <point x="46" y="178" type="line"/>
    </contour>
  </outline>
</glyph>
<glyph name="less" format="1">
  <advance width="478"/>
  <unicode hex="003C"/>
  <outline>
    <contour>
      <point x="451" y="56" type="line"/>
      <point x="24" y="272" type="line"/>
      <point x="24" y="432" type="line"/>
      <point x="451" y="648" type="line"/>
      <point x="451" y="471" type="line"/>
      <point x="182" y="352" type="line"/>
      <point x="451" y="233" type="line"/>
    </contour>
  </outline>
</glyph>
<glyph name="greater" format="1">
  <advance width="478"/>
  <unicode hex="003E"/>
  <outline>
    <contour>
      <point x="454" y="275" type="line"/>
      <point x="27" y="59" type="line"/>
      <point x="27" y="236" type="line"/>
      <point x="296" y="355" type="line"/>
      <point x="27" y="474" type="line"/>
      <point x="27" y="651" type="line"/>
      <point x="454" y="435" type="line"/>
    </contour>
  </outline>
</glyph>
<glyph name="question" format="1">
  <advance width="456"/>
  <unicode hex="003F"/>
  <outline>
    <contour>
      <point x="443" y="532" type="curve" smooth="yes"/>
      <point x="443" y="429"/>
      <point x="401" y="380"/>
      <point x="335" y="330" type="curve" smooth="yes"/>
      <point x="286" y="293"/>
      <point x="267" y="269"/>
      <point x="260" y="233" type="curve"/>
      <point x="155" y="233" type="line"/>
      <point x="131" y="321"/>
      <point x="146" y="366"/>
      <point x="215" y="433" type="curve" smooth="yes"/>
      <point x="248" y="465"/>
      <point x="263" y="490"/>
      <point x="263" y="529" type="curve" smooth="yes"/>
      <point x="263" y="570"/>
      <point x="250" y="589"/>
      <point x="227" y="589" type="curve" smooth="yes"/>
      <point x="197" y="589"/>
      <point x="180" y="567"/>
      <point x="158" y="468" type="curve"/>
      <point x="3" y="517" type="line"/>
      <point x="27" y="657"/>
      <point x="91" y="732"/>
      <point x="234" y="732" type="curve" smooth="yes"/>
      <point x="374" y="732"/>
      <point x="443" y="654"/>
    </contour>
    <contour>
      <point x="306" y="88" type="curve" smooth="yes"/>
      <point x="306" y="34"/>
      <point x="265" y="-7"/>
      <point x="211" y="-7" type="curve" smooth="yes"/>
      <point x="157" y="-7"/>
      <point x="116" y="34"/>
      <point x="116" y="88" type="curve" smooth="yes"/>
      <point x="116" y="142"/>
      <point x="157" y="183"/>
      <point x="211" y="183" type="curve" smooth="yes"/>
      <point x="265" y="183"/>
      <point x="306" y="142"/>
    </contour>
  </outline>
</glyph>
<glyph name="at" format="1">
  <advance width="782"/>
  <unicode hex="0040"/>
  <outline>
    <contour>
      <point x="739" y="330" type="curve" smooth="yes"/>
      <point x="739" y="101"/>
      <point x="649" y="21"/>
      <point x="542" y="21" type="curve" smooth="yes"/>
      <point x="465" y="21"/>
      <point x="402" y="56"/>
      <point x="403" y="133" type="curve"/>
      <point x="399" y="133" type="line"/>
      <point x="371" y="65"/>
      <point x="325" y="21"/>
      <point x="261" y="21" type="curve" smooth="yes"/>
      <point x="212" y="21"/>
      <point x="169" y="59"/>
      <point x="169" y="161" type="curve" smooth="yes"/>
      <point x="169" y="353"/>
      <point x="237" y="522"/>
      <point x="341" y="522" type="curve" smooth="yes"/>
      <point x="400" y="522"/>
      <point x="425" y="484"/>
      <point x="435" y="427" type="curve"/>
      <point x="438" y="427" type="line"/>
      <point x="457" y="523" type="line"/>
      <point x="603" y="501" type="line"/>
      <point x="537" y="172" type="line" smooth="yes"/>
      <point x="524" y="105"/>
      <point x="546" y="84"/>
      <point x="587" y="84" type="curve" smooth="yes"/>
      <point x="650" y="84"/>
      <point x="697" y="176"/>
      <point x="697" y="331" type="curve" smooth="yes"/>
      <point x="697" y="558"/>
      <point x="591" y="692"/>
      <point x="401" y="692" type="curve" smooth="yes"/>
      <point x="212" y="692"/>
      <point x="73" y="540"/>
      <point x="73" y="266" type="curve" smooth="yes"/>
      <point x="73" y="-13"/>
      <point x="192" y="-150"/>
      <point x="394" y="-150" type="curve" smooth="yes"/>
      <point x="492" y="-150"/>
      <point x="556" y="-126"/>
      <point x="628" y="-77" type="curve"/>
      <point x="649" y="-114" type="line"/>
      <point x="573" y="-164"/>
      <point x="498" y="-192"/>
      <point x="392" y="-192" type="curve" smooth="yes"/>
      <point x="168" y="-192"/>
      <point x="30" y="-41"/>
      <point x="30" y="265" type="curve" smooth="yes"/>
      <point x="30" y="572"/>
      <point x="192" y="732"/>
      <point x="403" y="732" type="curve" smooth="yes"/>
      <point x="594" y="732"/>
      <point x="739" y="609"/>
    </contour>
    <contour>
      <point x="418" y="356" type="curve" smooth="yes"/>
      <point x="418" y="383"/>
      <point x="412" y="402"/>
      <point x="393" y="402" type="curve" smooth="yes"/>
      <point x="354" y="402"/>
      <point x="318" y="292"/>
      <point x="318" y="175" type="curve" smooth="yes"/>
      <point x="318" y="147"/>
      <point x="324" y="128"/>
      <point x="343" y="128" type="curve" smooth="yes"/>
      <point x="378" y="128"/>
      <point x="418" y="230"/>
    </contour>
  </outline>
</glyph>
<glyph name="A" format="1">
  <advance width="572"/>
  <unicode hex="0041"/>
  <outline>
    <contour>
      <point x="569" y="0" type="line"/>
      <point x="368" y="0" type="line"/>
      <point x="346" y="144" type="line"/>
      <point x="218" y="144" type="line"/>
      <point x="196" y="0" type="line"/>
      <point x="3" y="0" type="line"/>
      <point x="157" y="723" type="line"/>
      <point x="415" y="723" type="line"/>
    </contour>
    <contour>
      <point x="326" y="280" type="line"/>
      <point x="284" y="558" type="line"/>
      <point x="280" y="558" type="line"/>
      <point x="238" y="280" type="line"/>
    </contour>
  </outline>
</glyph>
<glyph name="B" format="1">
  <advance width="493"/>
  <unicode hex="0042"/>
  <outline>
    <contour>
      <point x="489" y="200" type="curve" smooth="yes"/>
      <point x="489" y="72"/>
      <point x="401" y="0"/>
      <point x="246" y="0" type="curve" smooth="yes"/>
      <point x="27" y="0" type="line"/>
      <point x="27" y="720" type="line"/>
      <point x="243" y="720" type="line" smooth="yes"/>
      <point x="385" y="720"/>
      <point x="469" y="657"/>
      <point x="469" y="538" type="curve" smooth="yes"/>
      <point x="469" y="451"/>
      <point x="418" y="405"/>
      <point x="366" y="383" type="curve"/>
      <point x="366" y="379" type="line"/>
      <point x="444" y="349"/>
      <point x="489" y="298"/>
    </contour>
    <contour>
      <point x="289" y="515" type="curve" smooth="yes"/>
      <point x="289" y="568"/>
      <point x="266" y="593"/>
      <point x="224" y="593" type="curve" smooth="yes"/>
      <point x="212" y="593" type="line"/>
      <point x="212" y="433" type="line"/>
      <point x="224" y="433" type="line" smooth="yes"/>
      <point x="266" y="433"/>
      <point x="289" y="462"/>
    </contour>
    <contour>
      <point x="304" y="223" type="curve" smooth="yes"/>
      <point x="304" y="290"/>
      <point x="273" y="318"/>
      <point x="221" y="318" type="curve" smooth="yes"/>
      <point x="212" y="318" type="line"/>
      <point x="212" y="127" type="line"/>
      <point x="221" y="127" type="line" smooth="yes"/>
      <point x="274" y="127"/>
      <point x="304" y="155"/>
    </contour>
  </outline>
</glyph>
<glyph name="C" format="1">
  <advance width="493"/>
  <unicode hex="0043"/>
  <outline>
    <contour>
      <point x="482" y="241" type="line"/>
      <point x="466" y="66"/>
      <point x="397" y="-12"/>
      <point x="253" y="-12" type="curve" smooth="yes"/>
      <point x="119" y="-12"/>
      <point x="20" y="80"/>
      <point x="20" y="293" type="curve" smooth="yes"/>
      <point x="20" y="427" type="line" smooth="yes"/>
      <point x="20" y="640"/>
      <point x="118" y="732"/>
      <point x="256" y="732" type="curve" smooth="yes"/>
      <point x="410" y="732"/>
      <point x="468" y="633"/>
      <point x="480" y="479" type="curve"/>
      <point x="297" y="438" type="line"/>
      <point x="295" y="553"/>
      <point x="286" y="585"/>
      <point x="256" y="585" type="curve" smooth="yes"/>
      <point x="222" y="585"/>
      <point x="216" y="538"/>
      <point x="216" y="453" type="curve" smooth="yes"/>
      <point x="216" y="268" type="line" smooth="yes"/>
      <point x="216" y="174"/>
      <point x="228" y="135"/>
      <point x="257" y="135" type="curve" smooth="yes"/>
      <point x="285" y="135"/>
      <point x="297" y="165"/>
      <point x="303" y="280" type="curve"/>
    </contour>
  </outline>
</glyph>
<glyph name="H" format="1">
  <advance width="525"/>
  <unicode hex="0048"/>
  <outline>
    <contour>
      <point x="499" y="0" type="line"/>
      <point x="303" y="0" type="line"/>
      <point x="303" y="291" type="line"/>
      <point x="223" y="291" type="line"/>
      <point x="223" y="0" type="line"/>
      <point x="27" y="0" type="line"/>
      <point x="27" y="720" type="line"/>
      <point x="223" y="720" type="line"/>
      <point x="223" y="450" type="line"/>
      <point x="303" y="450" type="line"/>
      <point x="303" y="720" type="line"/>
      <point x="499" y="720" type="line"/>
    </contour>
  </outline>
</glyph>
<glyph name="I" format="1">
  <advance width="378"/>
  <unicode hex="0049"/>
  <outline>
    <contour>
      <point x="358" y="0" type="line"/>
      <point x="20" y="0" type="line"/>
      <point x="20" y="62" type="line"/>
      <point x="94" y="62" type="line"/>
      <point x="94" y="658" type="line"/>
      <point x="20" y="658" type="line"/>
      <point x="20" y="720" type="line"/>
      <point x="358" y="720" type="line"/>
      <point x="358" y="658" type="line"/>
      <point x="284" y="658" type="line"/>
      <point x="284" y="62" type="line"/>
      <point x="358" y="62" type="line"/>
    </contour>
  </outline>
</glyph>
<glyph name="J" format="1">
  <advance width="474"/>
  <unicode hex="004A"/>
  <outline>
    <contour>
      <point x="450" y="229" type="line" smooth="yes"/>
      <point x="450" y="43"/>
      <point x="356" y="-12"/>
      <point x="216" y="-12" type="curve" smooth="yes"/>
      <point x="78" y="-12"/>
      <point x="3" y="66"/>
      <point x="5" y="246" type="curve"/>
      <point x="182" y="281" type="line"/>
      <point x="182" y="175"/>
      <point x="188" y="135"/>
      <point x="219" y="135" type="curve" smooth="yes"/>
      <point x="248" y="135"/>
      <point x="254" y="159"/>
      <point x="254" y="227" type="curve" smooth="yes"/>
      <point x="254" y="720" type="line"/>
      <point x="450" y="720" type="line"/>
    </contour>
  </outline>
</glyph>
<glyph name="L" format="1">
  <advance width="414"/>
  <unicode hex="004C"/>
  <outline>
    <contour>
      <point x="401" y="0" type="line"/>
      <point x="27" y="0" type="line"/>
      <point x="27" y="720" type="line"/>
      <point x="223" y="720" type="line"/>
      <point x="223" y="160" type="line"/>
      <point x="401" y="160" type="line"/>
    </contour>
  </outline>
</glyph>
<glyph name="M" format="1">
  <advance width="740"/>
  <unicode hex="004D"/>
  <outline>
    <contour>
      <point x="713" y="0" type="line"/>
      <point x="534" y="0" type="line"/>
      <point x="534" y="492" type="line"/>
      <point x="530" y="492" type="line"/>
      <point x="459" y="0" type="line"/>
      <point x="269" y="0" type="line"/>
      <point x="198" y="492" type="line"/>
      <point x="194" y="492" type="line"/>
      <point x="194" y="0" type="line"/>
      <point x="27" y="0" type="line"/>
      <point x="27" y="720" type="line"/>
      <point x="303" y="720" type="line"/>
      <point x="370" y="250" type="line"/>
      <point x="373" y="250" type="line"/>
      <point x="440" y="720" type="line"/>
      <point x="713" y="720" type="line"/>
    </contour>
  </outline>
</glyph>
<glyph name="N" format="1">
  <advance width="520"/>
  <unicode hex="004E"/>
  <outline>
    <contour>
      <point x="493" y="0" type="line"/>
      <point x="329" y="0" type="line"/>
      <point x="187" y="348" type="line"/>
      <point x="184" y="348" type="line"/>
      <point x="184" y="0" type="line"/>
      <point x="27" y="0" type="line"/>
      <point x="27" y="720" type="line"/>
      <point x="206" y="720" type="line"/>
      <point x="333" y="407" type="line"/>
      <point x="336" y="407" type="line"/>
      <point x="336" y="720" type="line"/>
      <point x="493" y="720" type="line"/>
    </contour>
  </outline>
</glyph>
<glyph name="T" format="1">
  <advance width="493"/>
  <unicode hex="0054"/>
  <outline>
    <contour>
      <point x="478" y="562" type="line"/>
      <point x="343" y="562" type="line"/>
      <point x="343" y="0" type="line"/>
      <point x="150" y="0" type="line"/>
      <point x="150" y="562" type="line"/>
      <point x="15" y="562" type="line"/>
      <point x="15" y="720" type="line"/>
      <point x="478" y="720" type="line"/>
    </contour>
  </outline>
</glyph>
<glyph name="W" format="1">
  <advance width="792"/>
  <unicode hex="0057"/>
  <outline>
    <contour>
      <point x="787" y="720" type="line"/>
      <point x="689" y="-4" type="line"/>
      <point x="450" y="-4" type="line"/>
      <point x="398" y="462" type="line"/>
      <point x="394" y="462" type="line"/>
      <point x="342" y="-4" type="line"/>
      <point x="103" y="-4" type="line"/>
      <point x="5" y="720" type="line"/>
      <point x="198" y="720" type="line"/>
      <point x="234" y="241" type="line"/>
      <point x="237" y="241" type="line"/>
      <point x="280" y="720" type="line"/>
      <point x="517" y="720" type="line"/>
      <point x="560" y="241" type="line"/>
      <point x="563" y="241" type="line"/>
      <point x="599" y="720" type="line"/>
    </contour>
  </outline>
</glyph>
<glyph name="X" format="1">
  <advance width="531"/>
  <unicode hex="0058"/>
  <outline>
    <contour>
      <point x="526" y="0" type="line"/>
      <point x="310" y="0" type="line"/>
      <point x="253" y="207" type="line"/>
      <point x="187" y="0" type="line"/>
      <point x="5" y="0" type="line"/>
      <point x="150" y="366" type="line"/>
      <point x="15" y="720" type="line"/>
      <point x="231" y="720" type="line"/>
      <point x="279" y="533" type="line"/>
      <point x="335" y="720" type="line"/>
      <point x="516" y="720" type="line"/>
      <point x="382" y="375" type="line"/>
    </contour>
  </outline>
</glyph>
<glyph name="Z" format="1">
  <advance width="457"/>
  <unicode hex="005A"/>
  <outline>
    <contour>
      <point x="444" y="0" type="line"/>
      <point x="14" y="0" type="line"/>
      <point x="14" y="136" type="line"/>
      <point x="227" y="564" type="line"/>
      <point x="26" y="564" type="line"/>
      <point x="26" y="720" type="line"/>
      <point x="444" y="720" type="line"/>
      <point x="444" y="584" type="line"/>
      <point x="231" y="156" type="line"/>
      <point x="444" y="156" type="line"/>
    </contour>
  </outline>
</glyph>
<glyph name="bracketleft" format="1">
  <advance width="342"/>
  <unicode hex="005B"/>
  <outline>
    <contour>
      <point x="325" y="-80" type="line"/>
      <point x="43" y="-91" type="line"/>
      <point x="43" y="731" type="line"/>
      <point x="325" y="720" type="line"/>
      <point x="325" y="645" type="line"/>
      <point x="197" y="650" type="line"/>
      <point x="197" y="-10" type="line"/>
      <point x="325" y="-5" type="line"/>
    </contour>
  </outline>
</glyph>
<glyph name="grave" format="1">
  <advance width="400"/>
  <unicode hex="0060"/>
  <outline>
    <contour>
      <point x="310" y="582" type="line"/>
      <point x="187" y="582" type="line"/>
      <point x="59" y="720" type="line"/>
      <point x="253" y="720" type="line"/>
    </contour>
  </outline>
</glyph>
<glyph name="b" format="1">
  <advance width="474"/>
  <unicode hex="0062"/>
  <outline>
    <contour>
      <point x="458" y="248" type="line" smooth="yes"/>
      <point x="458" y="63"/>
      <point x="399" y="-7"/>
      <point x="328" y="-7" type="curve" smooth="yes"/>
      <point x="276" y="-7"/>
      <point x="243" y="27"/>
      <point x="212" y="80" type="curve"/>
      <point x="210" y="80" type="line"/>
      <point x="210" y="-8" type="line"/>
      <point x="24" y="16" type="line"/>
      <point x="24" y="730" type="line"/>
      <point x="210" y="754" type="line"/>
      <point x="210" y="457" type="line"/>
      <point x="212" y="457" type="line"/>
      <point x="243" y="513"/>
      <point x="276" y="549"/>
      <point x="328" y="549" type="curve" smooth="yes"/>
      <point x="399" y="549"/>
      <point x="458" y="479"/>
      <point x="458" y="294" type="curve" smooth="yes"/>
    </contour>
    <contour>
      <point x="275" y="271" type="curve" smooth="yes"/>
      <point x="275" y="391"/>
      <point x="263" y="424"/>
      <point x="240" y="424" type="curve" smooth="yes"/>
      <point x="217" y="424"/>
      <point x="205" y="391"/>
      <point x="205" y="271" type="curve" smooth="yes"/>
      <point x="205" y="151"/>
      <point x="217" y="118"/>
      <point x="240" y="118" type="curve" smooth="yes"/>
      <point x="263" y="118"/>
      <point x="275" y="151"/>
    </contour>
  </outline>
</glyph>
<glyph name="g" format="1">
  <advance width="474"/>
  <unicode hex="0067"/>
  <outline>
    <contour>
      <point x="450" y="25" type="line" smooth="yes"/>
      <point x="450" y="-132"/>
      <point x="373" y="-191"/>
      <point x="203" y="-191" type="curve" smooth="yes"/>
      <point x="140" y="-191"/>
      <point x="89" y="-180"/>
      <point x="53" y="-168" type="curve"/>
      <point x="53" y="-54" type="line"/>
      <point x="86" y="-54" type="line"/>
      <point x="105" y="-84"/>
      <point x="130" y="-101"/>
      <point x="175" y="-101" type="curve" smooth="yes"/>
      <point x="236" y="-101"/>
      <point x="264" y="-72"/>
      <point x="264" y="5" type="curve" smooth="yes"/>
      <point x="264" y="85" type="line"/>
      <point x="262" y="85" type="line"/>
      <point x="231" y="29"/>
      <point x="198" y="-7"/>
      <point x="146" y="-7" type="curve" smooth="yes"/>
      <point x="75" y="-7"/>
      <point x="16" y="63"/>
      <point x="16" y="248" type="curve" smooth="yes"/>
      <point x="16" y="294" type="line" smooth="yes"/>
      <point x="16" y="479"/>
      <point x="75" y="549"/>
      <point x="146" y="549" type="curve" smooth="yes"/>
      <point x="198" y="549"/>
      <point x="231" y="515"/>
      <point x="262" y="462" type="curve"/>
      <point x="264" y="462" type="line"/>
      <point x="264" y="550" type="line"/>
      <point x="450" y="526" type="line"/>
    </contour>
    <contour>
      <point x="269" y="271" type="curve" smooth="yes"/>
      <point x="269" y="391"/>
      <point x="257" y="424"/>
      <point x="234" y="424" type="curve" smooth="yes"/>
      <point x="211" y="424"/>
      <point x="199" y="391"/>
      <point x="199" y="271" type="curve" smooth="yes"/>
      <point x="199" y="151"/>
      <point x="211" y="118"/>
      <point x="234" y="118" type="curve" smooth="yes"/>
      <point x="257" y="118"/>
      <point x="269" y="151"/>
    </contour>
  </outline>
</glyph>
<glyph name="i" format="1">
  <advance width="238"/>
  <unicode hex="0069"/>
  <outline>
    <contour>
      <point x="213" y="588" type="line"/>
      <point x="25" y="588" type="line"/>
      <point x="25" y="720" type="line"/>
      <point x="213" y="720" type="line"/>
    </contour>
    <contour>
      <point x="212" y="0" type="line"/>
      <point x="26" y="0" type="line"/>
      <point x="26" y="542" type="line"/>
      <point x="212" y="542" type="line"/>
    </contour>
  </outline>
</glyph>
<glyph name="j" format="1">
  <advance width="238"/>
  <unicode hex="006A"/>
  <outline>
    <contour>
      <point x="213" y="588" type="line"/>
      <point x="25" y="588" type="line"/>
      <point x="25" y="720" type="line"/>
      <point x="213" y="720" type="line"/>
    </contour>
    <contour>
      <point x="212" y="-19" type="line" smooth="yes"/>
      <point x="212" y="-149"/>
      <point x="150" y="-190"/>
      <point x="41" y="-190" type="curve" smooth="yes"/>
      <point x="-1" y="-190"/>
      <point x="-26" y="-186"/>
      <point x="-56" y="-178" type="curve"/>
      <point x="-56" y="-70" type="line"/>
      <point x="-42" y="-76"/>
      <point x="-30" y="-78"/>
      <point x="-13" y="-78" type="curve" smooth="yes"/>
      <point x="11" y="-78"/>
      <point x="26" y="-66"/>
      <point x="26" y="-34" type="curve" smooth="yes"/>
      <point x="26" y="542" type="line"/>
      <point x="212" y="542" type="line"/>
    </contour>
  </outline>
</glyph>
<glyph name="m" format="1">
  <advance width="705"/>
  <unicode hex="006D"/>
  <outline>
    <contour>
      <point x="683" y="0" type="line"/>
      <point x="500" y="0" type="line"/>
      <point x="500" y="371" type="line" smooth="yes"/>
      <point x="500" y="397"/>
      <point x="492" y="410"/>
      <point x="472" y="410" type="curve" smooth="yes"/>
      <point x="462" y="410"/>
      <point x="455" y="407"/>
      <point x="445" y="402" type="curve"/>
      <point x="445" y="0" type="line"/>
      <point x="262" y="0" type="line"/>
      <point x="262" y="371" type="line" smooth="yes"/>
      <point x="262" y="397"/>
      <point x="254" y="410"/>
      <point x="234" y="410" type="curve" smooth="yes"/>
      <point x="224" y="410"/>
      <point x="217" y="407"/>
      <point x="207" y="402" type="curve"/>
      <point x="207" y="0" type="line"/>
      <point x="24" y="0" type="line"/>
      <point x="24" y="526" type="line"/>
      <point x="207" y="550" type="line"/>
      <point x="207" y="450" type="line"/>
      <point x="210" y="450" type="line"/>
      <point x="260" y="521"/>
      <point x="295" y="549"/>
      <point x="346" y="549" type="curve" smooth="yes"/>
      <point x="400" y="549"/>
      <point x="435" y="517"/>
      <point x="443" y="450" type="curve"/>
      <point x="445" y="450" type="line"/>
      <point x="448" y="450" type="line"/>
      <point x="498" y="521"/>
      <point x="533" y="549"/>
      <point x="584" y="549" type="curve" smooth="yes"/>
      <point x="646" y="549"/>
      <point x="683" y="507"/>
      <point x="683" y="416" type="curve" smooth="yes"/>
    </contour>
  </outline>
</glyph>
<glyph name="r" format="1">
  <advance width="372"/>
  <unicode hex="0072"/>
  <outline>
    <contour>
      <point x="369" y="354" type="line"/>
      <point x="296" y="346"/>
      <point x="249" y="329"/>
      <point x="210" y="304" type="curve"/>
      <point x="210" y="0" type="line"/>
      <point x="24" y="0" type="line"/>
      <point x="24" y="526" type="line"/>
      <point x="210" y="550" type="line"/>
      <point x="210" y="369" type="line"/>
      <point x="214" y="369" type="line"/>
      <point x="268" y="497"/>
      <point x="314" y="544"/>
      <point x="369" y="551" type="curve"/>
    </contour>
  </outline>
</glyph>
<glyph name="s" format="1">
  <advance width="395"/>
  <unicode hex="0073"/>
  <outline>
    <contour>
      <point x="386" y="170" type="curve" smooth="yes"/>
      <point x="386" y="50"/>
      <point x="310" y="-10"/>
      <point x="195" y="-10" type="curve" smooth="yes"/>
      <point x="111" y="-10"/>
      <point x="46" y="23"/>
      <point x="0" y="86" type="curve"/>
      <point x="96" y="186" type="line"/>
      <point x="133" y="139"/>
      <point x="165" y="120"/>
      <point x="199" y="120" type="curve" smooth="yes"/>
      <point x="224" y="120"/>
      <point x="241" y="130"/>
      <point x="241" y="146" type="curve" smooth="yes"/>
      <point x="241" y="165"/>
      <point x="227" y="173"/>
      <point x="166" y="192" type="curve" smooth="yes"/>
      <point x="57" y="227"/>
      <point x="16" y="287"/>
      <point x="16" y="373" type="curve" smooth="yes"/>
      <point x="16" y="488"/>
      <point x="97" y="552"/>
      <point x="199" y="552" type="curve" smooth="yes"/>
      <point x="279" y="552"/>
      <point x="336" y="521"/>
      <point x="378" y="463" type="curve"/>
      <point x="283" y="363" type="line"/>
      <point x="249" y="407"/>
      <point x="225" y="422"/>
      <point x="195" y="422" type="curve" smooth="yes"/>
      <point x="175" y="422"/>
      <point x="162" y="411"/>
      <point x="162" y="396" type="curve" smooth="yes"/>
      <point x="162" y="378"/>
      <point x="177" y="367"/>
      <point x="234" y="349" type="curve" smooth="yes"/>
      <point x="341" y="315"/>
      <point x="386" y="260"/>
    </contour>
  </outline>
</glyph>
<glyph name="t" format="1">
  <advance width="362"/>
  <unicode hex="0074"/>
  <outline>
    <contour>
      <point x="345" y="27" type="line"/>
      <point x="297" y="3"/>
      <point x="251" y="-8"/>
      <point x="202" y="-8" type="curve" smooth="yes"/>
      <point x="103" y="-8"/>
      <point x="63" y="33"/>
      <point x="63" y="127" type="curve" smooth="yes"/>
      <point x="63" y="419" type="line"/>
      <point x="2" y="419" type="line"/>
      <point x="2" y="540" type="line"/>
      <point x="63" y="540" type="line"/>
      <point x="63" y="705" type="line"/>
      <point x="244" y="728" type="line"/>
      <point x="244" y="540" type="line"/>
      <point x="337" y="540" type="line"/>
      <point x="337" y="419" type="line"/>
      <point x="244" y="419" type="line"/>
      <point x="244" y="171" type="line" smooth="yes"/>
      <point x="244" y="145"/>
      <point x="261" y="133"/>
      <point x="282" y="133" type="curve" smooth="yes"/>
      <point x="301" y="133"/>
      <point x="319" y="137"/>
      <point x="345" y="149" type="curve"/>
    </contour>
  </outline>
</glyph>
<glyph name="z" format="1">
  <advance width="395"/>
  <unicode hex="007A"/>
  <outline>
    <contour>
      <point x="382" y="0" type="line"/>
      <point x="11" y="0" type="line"/>
      <point x="11" y="111" type="line"/>
      <point x="179" y="414" type="line"/>
      <point x="23" y="414" type="line"/>
      <point x="23" y="540" type="line"/>
      <point x="382" y="540" type="line"/>
      <point x="382" y="429" type="line"/>
      <point x="214" y="126" type="line"/>
      <point x="382" y="126" type="line"/>
    </contour>
  </outline>
</glyph>
<glyph name="braceleft" format="1">
  <advance width="392"/>
  <unicode hex="007B"/>
  <outline>
    <contour>
      <point x="375" y="-80" type="line"/>
      <point x="227" y="-80" type="line" smooth="yes"/>
      <point x="143" y="-80"/>
      <point x="98" y="-38"/>
      <point x="98" y="48" type="curve" smooth="yes"/>
      <point x="98" y="89"/>
      <point x="114" y="143"/>
      <point x="114" y="188" type="curve" smooth="yes"/>
      <point x="114" y="259"/>
      <point x="68" y="283"/>
      <point x="7" y="283" type="curve"/>
      <point x="7" y="357" type="line"/>
      <point x="68" y="357"/>
      <point x="114" y="381"/>
      <point x="114" y="452" type="curve" smooth="yes"/>
      <point x="114" y="497"/>
      <point x="98" y="551"/>
      <point x="98" y="592" type="curve" smooth="yes"/>
      <point x="98" y="678"/>
      <point x="143" y="720"/>
      <point x="227" y="720" type="curve" smooth="yes"/>
      <point x="375" y="720" type="line"/>
      <point x="375" y="645" type="line"/>
      <point x="310" y="645" type="line" smooth="yes"/>
      <point x="271" y="645"/>
      <point x="252" y="624"/>
      <point x="252" y="582" type="curve" smooth="yes"/>
      <point x="252" y="551"/>
      <point x="268" y="495"/>
      <point x="268" y="447" type="curve" smooth="yes"/>
      <point x="268" y="370"/>
      <point x="228" y="343"/>
      <point x="183" y="324" type="curve"/>
      <point x="183" y="316" type="line"/>
      <point x="228" y="297"/>
      <point x="268" y="270"/>
      <point x="268" y="193" type="curve" smooth="yes"/>
      <point x="268" y="145"/>
      <point x="252" y="89"/>
      <point x="252" y="58" type="curve" smooth="yes"/>
      <point x="252" y="16"/>
      <point x="271" y="-5"/>
      <point x="310" y="-5" type="curve" smooth="yes"/>
      <point x="375" y="-5" type="line"/>
    </contour>
  </outline>
</glyph>
<glyph name="braceright" format="1">
  <advance width="392"/>
  <unicode hex="007D"/>
  <outline>
    <contour>
      <point x="385" y="283" type="line"/>
      <point x="324" y="283"/>
      <point x="278" y="259"/>
      <point x="278" y="188" type="curve" smooth="yes"/>
      <point x="278" y="143"/>
      <point x="294" y="89"/>
      <point x="294" y="48" type="curve" smooth="yes"/>
      <point x="294" y="-38"/>
      <point x="250" y="-80"/>
      <point x="165" y="-80" type="curve" smooth="yes"/>
      <point x="17" y="-80" type="line"/>
      <point x="17" y="-5" type="line"/>
      <point x="82" y="-5" type="line" smooth="yes"/>
      <point x="121" y="-5"/>
      <point x="140" y="16"/>
      <point x="140" y="58" type="curve" smooth="yes"/>
      <point x="140" y="89"/>
      <point x="124" y="145"/>
      <point x="124" y="193" type="curve" smooth="yes"/>
      <point x="124" y="270"/>
      <point x="164" y="297"/>
      <point x="210" y="316" type="curve"/>
      <point x="210" y="324" type="line"/>
      <point x="164" y="343"/>
      <point x="124" y="370"/>
      <point x="124" y="447" type="curve" smooth="yes"/>
      <point x="124" y="495"/>
      <point x="140" y="551"/>
      <point x="140" y="582" type="curve" smooth="yes"/>
      <point x="140" y="624"/>
      <point x="121" y="645"/>
      <point x="82" y="645" type="curve" smooth="yes"/>
      <point x="17" y="645" type="line"/>
      <point x="17" y="720" type="line"/>
      <point x="165" y="720" type="line" smooth="yes"/>
      <point x="250" y="720"/>
      <point x="294" y="678"/>
      <point x="294" y="592" type="curve" smooth="yes"/>
      <point x="294" y="551"/>
      <point x="278" y="497"/>
      <point x="278" y="452" type="curve" smooth="yes"/>
      <point x="278" y="381"/>
      <point x="324" y="357"/>
      <point x="385" y="357" type="curve"/>
    </contour>
  </outline>
</glyph>
<glyph name="asciitilde" format="1">
  <advance width="328"/>
  <unicode hex="007E"/>
  <outline>
    <contour>
      <point x="313" y="380" type="line"/>
      <point x="320" y="259"/>
      <point x="293" y="205"/>
      <point x="230" y="205" type="curve" smooth="yes"/>
      <point x="173" y="205"/>
      <point x="141" y="255"/>
      <point x="113" y="255" type="curve" smooth="yes"/>
      <point x="96" y="255"/>
      <point x="89" y="242"/>
      <point x="88" y="207" type="curve"/>
      <point x="15" y="207" type="line"/>
      <point x="8" y="328"/>
      <point x="35" y="382"/>
      <point x="98" y="382" type="curve" smooth="yes"/>
      <point x="155" y="382"/>
      <point x="187" y="332"/>
      <point x="215" y="332" type="curve" smooth="yes"/>
      <point x="232" y="332"/>
      <point x="239" y="345"/>
      <point x="240" y="380" type="curve"/>
    </contour>
  </outline>
</glyph>
<glyph name="section" format="1">
  <advance width="474"/>
  <unicode hex="00A7"/>
  <outline>
    <contour>
      <point x="465" y="379" type="curve" smooth="yes"/>
      <point x="465" y="309"/>
      <point x="414" y="268"/>
      <point x="346" y="259" type="curve"/>
      <point x="346" y="257" type="line"/>
      <point x="390" y="244"/>
      <point x="438" y="211"/>
      <point x="438" y="134" type="curve" smooth="yes"/>
      <point x="438" y="45"/>
      <point x="378" y="-12"/>
      <point x="255" y="-12" type="curve" smooth="yes"/>
      <point x="159" y="-12"/>
      <point x="92" y="15"/>
      <point x="37" y="50" type="curve"/>
      <point x="95" y="171" type="line"/>
      <point x="147" y="140"/>
      <point x="213" y="119"/>
      <point x="253" y="119" type="curve" smooth="yes"/>
      <point x="275" y="119"/>
      <point x="289" y="126"/>
      <point x="289" y="141" type="curve" smooth="yes"/>
      <point x="289" y="160"/>
      <point x="275" y="172"/>
      <point x="216" y="185" type="curve" smooth="yes"/>
      <point x="81" y="215"/>
      <point x="9" y="250"/>
      <point x="9" y="341" type="curve" smooth="yes"/>
      <point x="9" y="411"/>
      <point x="60" y="452"/>
      <point x="128" y="461" type="curve"/>
      <point x="128" y="463" type="line"/>
      <point x="84" y="476"/>
      <point x="36" y="509"/>
      <point x="36" y="586" type="curve" smooth="yes"/>
      <point x="36" y="675"/>
      <point x="96" y="732"/>
      <point x="219" y="732" type="curve" smooth="yes"/>
      <point x="315" y="732"/>
      <point x="382" y="705"/>
      <point x="437" y="670" type="curve"/>
      <point x="379" y="549" type="line"/>
      <point x="327" y="580"/>
      <point x="261" y="601"/>
      <point x="221" y="601" type="curve" smooth="yes"/>
      <point x="199" y="601"/>
      <point x="185" y="594"/>
      <point x="185" y="579" type="curve" smooth="yes"/>
      <point x="185" y="560"/>
      <point x="199" y="548"/>
      <point x="258" y="535" type="curve" smooth="yes"/>
      <point x="393" y="505"/>
      <point x="465" y="470"/>
    </contour>
    <contour>
      <point x="322" y="344" type="curve" smooth="yes"/>
      <point x="322" y="358"/>
      <point x="308" y="376"/>
      <point x="276" y="388" type="curve" smooth="yes"/>
      <point x="256" y="396"/>
      <point x="224" y="403"/>
      <point x="193" y="403" type="curve" smooth="yes"/>
      <point x="173" y="403"/>
      <point x="152" y="395"/>
      <point x="152" y="376" type="curve" smooth="yes"/>
      <point x="152" y="362"/>
      <point x="166" y="344"/>
      <point x="198" y="332" type="curve" smooth="yes"/>
      <point x="218" y="324"/>
      <point x="250" y="317"/>
      <point x="281" y="317" type="curve" smooth="yes"/>
      <point x="301" y="317"/>
      <point x="322" y="325"/>
    </contour>
  </outline>
</glyph>
<glyph name="dieresis" format="1">
  <advance width="400"/>
  <unicode hex="00A8"/>
  <outline>
    <contour>
      <point x="352" y="582" type="line"/>
      <point x="222" y="582" type="line"/>
      <point x="222" y="720" type="line"/>
      <point x="352" y="720" type="line"/>
    </contour>
    <contour>
      <point x="178" y="582" type="line"/>
      <point x="48" y="582" type="line"/>
      <point x="48" y="720" type="line"/>
      <point x="178" y="720" type="line"/>
    </contour>
  </outline>
</glyph>
<glyph name="copyright" format="1">
  <advance width="652"/>
  <unicode hex="00A9"/>
  <outline>
    <contour>
      <point x="629" y="361" type="curve" smooth="yes"/>
      <point x="629" y="149"/>
      <point x="500" y="-12"/>
      <point x="325" y="-12" type="curve" smooth="yes"/>
      <point x="151" y="-12"/>
      <point x="23" y="145"/>
      <point x="23" y="359" type="curve" smooth="yes"/>
      <point x="23" y="573"/>
      <point x="152" y="732"/>
      <point x="327" y="732" type="curve" smooth="yes"/>
      <point x="501" y="732"/>
      <point x="629" y="573"/>
    </contour>
    <contour>
      <point x="589" y="359" type="curve" smooth="yes"/>
      <point x="589" y="545"/>
      <point x="485" y="694"/>
      <point x="325" y="694" type="curve" smooth="yes"/>
      <point x="166" y="694"/>
      <point x="63" y="547"/>
      <point x="63" y="361" type="curve" smooth="yes"/>
      <point x="63" y="175"/>
      <point x="167" y="26"/>
      <point x="327" y="26" type="curve" smooth="yes"/>
      <point x="486" y="26"/>
      <point x="589" y="173"/>
    </contour>
    <contour>
      <point x="459" y="293" type="line"/>
      <point x="449" y="188"/>
      <point x="408" y="141"/>
      <point x="321" y="141" type="curve" smooth="yes"/>
      <point x="241" y="141"/>
      <point x="182" y="197"/>
      <point x="182" y="324" type="curve" smooth="yes"/>
      <point x="182" y="405" type="line" smooth="yes"/>
      <point x="182" y="533"/>
      <point x="240" y="588"/>
      <point x="323" y="588" type="curve" smooth="yes"/>
      <point x="416" y="588"/>
      <point x="450" y="528"/>
      <point x="458" y="436" type="curve"/>
      <point x="348" y="411" type="line"/>
      <point x="347" y="480"/>
      <point x="341" y="500"/>
      <point x="323" y="500" type="curve" smooth="yes"/>
      <point x="303" y="500"/>
      <point x="299" y="471"/>
      <point x="299" y="420" type="curve" smooth="yes"/>
      <point x="299" y="309" type="line" smooth="yes"/>
      <point x="299" y="253"/>
      <point x="306" y="230"/>
      <point x="324" y="230" type="curve" smooth="yes"/>
      <point x="341" y="230"/>
      <point x="348" y="248"/>
      <point x="351" y="317" type="curve"/>
    </contour>
  </outline>
</glyph>
<glyph name="ordfeminine" format="1">
  <advance width="311"/>
  <unicode hex="00AA"/>
  <outline>
    <contour>
      <point x="309" y="349" type="line"/>
      <point x="231" y="349"/>
      <point x="193" y="368"/>
      <point x="175" y="398" type="curve"/>
      <point x="171" y="398" type="line"/>
      <point x="153" y="370"/>
      <point x="126" y="349"/>
      <point x="88" y="349" type="curve" smooth="yes"/>
      <point x="37" y="349"/>
      <point x="4" y="385"/>
      <point x="4" y="448" type="curve" smooth="yes"/>
      <point x="4" y="519"/>
      <point x="54" y="561"/>
      <point x="165" y="573" type="curve"/>
      <point x="165" y="600" type="line" smooth="yes"/>
      <point x="165" y="621"/>
      <point x="154" y="635"/>
      <point x="134" y="635" type="curve" smooth="yes"/>
      <point x="114" y="635"/>
      <point x="88" y="629"/>
      <point x="48" y="606" type="curve"/>
      <point x="16" y="680" type="line"/>
      <point x="64" y="708"/>
      <point x="116" y="725"/>
      <point x="172" y="725" type="curve" smooth="yes"/>
      <point x="254" y="725"/>
      <point x="288" y="693"/>
      <point x="288" y="612" type="curve" smooth="yes"/>
      <point x="288" y="425" type="line" smooth="yes"/>
      <point x="288" y="404"/>
      <point x="292" y="399"/>
      <point x="309" y="395" type="curve"/>
    </contour>
    <contour>
      <point x="304" y="238" type="line"/>
      <point x="12" y="238" type="line"/>
      <point x="12" y="313" type="line"/>
      <point x="304" y="313" type="line"/>
    </contour>
    <contour>
      <point x="165" y="430" type="curve"/>
      <point x="165" y="525" type="line"/>
      <point x="131" y="515"/>
      <point x="122" y="495"/>
      <point x="122" y="466" type="curve" smooth="yes"/>
      <point x="122" y="439"/>
      <point x="133" y="427"/>
      <point x="150" y="427" type="curve" smooth="yes"/>
      <point x="156" y="427"/>
      <point x="160" y="427"/>
    </contour>
  </outline>
</glyph>
<glyph name="acute" format="1">
  <advance width="400"/>
  <unicode hex="00B4"/>
  <outline>
    <contour>
      <point x="341" y="720" type="line"/>
      <point x="213" y="582" type="line"/>
      <point x="90" y="582" type="line"/>
      <point x="147" y="720" type="line"/>
    </contour>
  </outline>
</glyph>
<glyph name="periodcentered" format="1">
  <advance width="238"/>
  <unicode hex="00B7"/>
  <outline>
    <contour>
      <point x="214" y="278" type="curve" smooth="yes"/>
      <point x="214" y="224"/>
      <point x="173" y="183"/>
      <point x="119" y="183" type="curve" smooth="yes"/>
      <point x="65" y="183"/>
      <point x="24" y="224"/>
      <point x="24" y="278" type="curve" smooth="yes"/>
      <point x="24" y="332"/>
      <point x="65" y="373"/>
      <point x="119" y="373" type="curve" smooth="yes"/>
      <point x="173" y="373"/>
      <point x="214" y="332"/>
    </contour>
  </outline>
</glyph>
<glyph name="guillemotright" format="1">
  <advance width="450"/>
  <unicode hex="00BB"/>
  <outline>
    <contour>
      <point x="442" y="271" type="line"/>
      <point x="307" y="65" type="line"/>
      <point x="218" y="65" type="line"/>
      <point x="272" y="271" type="line"/>
      <point x="218" y="477" type="line"/>
      <point x="307" y="477" type="line"/>
    </contour>
    <contour>
      <point x="245" y="271" type="line"/>
      <point x="110" y="65" type="line"/>
      <point x="20" y="65" type="line"/>
      <point x="75" y="271" type="line"/>
      <point x="20" y="477" type="line"/>
      <point x="110" y="477" type="line"/>
    </contour>
  </outline>
</glyph>
<glyph name="questiondown" format="1">
  <advance width="456"/>
  <unicode hex="00BF"/>
  <outline>
    <contour>
      <point x="340" y="632" type="curve" smooth="yes"/>
      <point x="340" y="578"/>
      <point x="299" y="537"/>
      <point x="245" y="537" type="curve" smooth="yes"/>
      <point x="191" y="537"/>
      <point x="150" y="578"/>
      <point x="150" y="632" type="curve" smooth="yes"/>
      <point x="150" y="686"/>
      <point x="191" y="727"/>
      <point x="245" y="727" type="curve" smooth="yes"/>
      <point x="299" y="727"/>
      <point x="340" y="686"/>
    </contour>
    <contour>
      <point x="453" y="203" type="line"/>
      <point x="429" y="63"/>
      <point x="365" y="-12"/>
      <point x="222" y="-12" type="curve" smooth="yes"/>
      <point x="82" y="-12"/>
      <point x="13" y="66"/>
      <point x="13" y="188" type="curve" smooth="yes"/>
      <point x="13" y="291"/>
      <point x="55" y="340"/>
      <point x="121" y="390" type="curve" smooth="yes"/>
      <point x="170" y="427"/>
      <point x="189" y="451"/>
      <point x="196" y="487" type="curve"/>
      <point x="301" y="487" type="line"/>
      <point x="325" y="399"/>
      <point x="310" y="354"/>
      <point x="241" y="287" type="curve" smooth="yes"/>
      <point x="208" y="255"/>
      <point x="193" y="230"/>
      <point x="193" y="191" type="curve" smooth="yes"/>
      <point x="193" y="150"/>
      <point x="206" y="131"/>
      <point x="229" y="131" type="curve" smooth="yes"/>
      <point x="259" y="131"/>
      <point x="276" y="153"/>
      <point x="298" y="252" type="curve"/>
    </contour>
  </outline>
</glyph>
<glyph name="AE" format="1">
  <advance width="792"/>
  <unicode hex="00C6"/>
  <outline>
    <contour>
      <point x="776" y="0" type="line"/>
      <point x="382" y="0" type="line"/>
      <point x="382" y="144" type="line"/>
      <point x="242" y="144" type="line"/>
      <point x="198" y="0" type="line"/>
      <point x="4" y="0" type="line"/>
      <point x="250" y="720" type="line"/>
      <point x="768" y="720" type="line"/>
      <point x="768" y="564" type="line"/>
      <point x="573" y="564" type="line"/>
      <point x="573" y="444" type="line"/>
      <point x="704" y="444" type="line"/>
      <point x="704" y="296" type="line"/>
      <point x="573" y="296" type="line"/>
      <point x="573" y="156" type="line"/>
      <point x="776" y="156" type="line"/>
    </contour>
    <contour>
      <point x="382" y="280" type="line"/>
      <point x="382" y="565" type="line"/>
      <point x="370" y="565" type="line"/>
      <point x="283" y="280" type="line"/>
    </contour>
  </outline>
</glyph>
<glyph name="Ccedilla" format="1">
  <advance width="493"/>
  <unicode hex="00C7"/>
  <outline>
    <contour>
      <point x="482" y="241" type="line"/>
      <point x="467" y="73"/>
      <point x="403" y="-6"/>
      <point x="270" y="-12" type="curve"/>
      <point x="250" y="-41" type="line"/>
      <point x="258" y="-40"/>
      <point x="275" y="-38"/>
      <point x="290" y="-38" type="curve" smooth="yes"/>
      <point x="335" y="-38"/>
      <point x="367" y="-56"/>
      <point x="367" y="-95" type="curve" smooth="yes"/>
      <point x="367" y="-163"/>
      <point x="305" y="-195"/>
      <point x="127" y="-191" type="curve"/>
      <point x="127" y="-156" type="line"/>
      <point x="242" y="-156"/>
      <point x="277" y="-142"/>
      <point x="277" y="-120" type="curve" smooth="yes"/>
      <point x="277" y="-108"/>
      <point x="268" y="-102"/>
      <point x="250" y="-102" type="curve" smooth="yes"/>
      <point x="236" y="-102"/>
      <point x="220" y="-106"/>
      <point x="205" y="-112" type="curve"/>
      <point x="173" y="-88" type="line"/>
      <point x="226" y="-11" type="line"/>
      <point x="106" y="1"/>
      <point x="20" y="95"/>
      <point x="20" y="293" type="curve" smooth="yes"/>
      <point x="20" y="427" type="line" smooth="yes"/>
      <point x="20" y="640"/>
      <point x="118" y="732"/>
      <point x="256" y="732" type="curve" smooth="yes"/>
      <point x="410" y="732"/>
      <point x="468" y="633"/>
      <point x="480" y="479" type="curve"/>
      <point x="297" y="438" type="line"/>
      <point x="295" y="553"/>
      <point x="286" y="585"/>
      <point x="256" y="585" type="curve" smooth="yes"/>
      <point x="222" y="585"/>
      <point x="216" y="538"/>
      <point x="216" y="453" type="curve" smooth="yes"/>
      <point x="216" y="268" type="line" smooth="yes"/>
      <point x="216" y="174"/>
      <point x="228" y="135"/>
      <point x="257" y="135" type="curve" smooth="yes"/>
      <point x="285" y="135"/>
      <point x="297" y="165"/>
      <point x="303" y="280" type="curve"/>
    </contour>
  </outline>
</glyph>
<glyph name="Eth" format="1">
  <advance width="550"/>
  <unicode hex="00D0"/>
  <outline>
    <contour>
      <point x="530" y="302" type="line" smooth="yes"/>
      <point x="530" y="93"/>
      <point x="431" y="0"/>
      <point x="288" y="0" type="curve" smooth="yes"/>
      <point x="53" y="0" type="line"/>
      <point x="53" y="296" type="line"/>
      <point x="17" y="296" type="line"/>
      <point x="17" y="442" type="line"/>
      <point x="53" y="442" type="line"/>
      <point x="53" y="720" type="line"/>
      <point x="288" y="720" type="line" smooth="yes"/>
      <point x="431" y="720"/>
      <point x="530" y="627"/>
      <point x="530" y="418" type="curve" smooth="yes"/>
    </contour>
    <contour>
      <point x="334" y="253" type="curve" smooth="yes"/>
      <point x="334" y="467" type="line" smooth="yes"/>
      <point x="334" y="545"/>
      <point x="316" y="578"/>
      <point x="273" y="578" type="curve" smooth="yes"/>
      <point x="249" y="578" type="line"/>
      <point x="249" y="442" type="line"/>
      <point x="289" y="442" type="line"/>
      <point x="289" y="296" type="line"/>
      <point x="249" y="296" type="line"/>
      <point x="249" y="142" type="line"/>
      <point x="273" y="142" type="line" smooth="yes"/>
      <point x="316" y="142"/>
      <point x="334" y="175"/>
    </contour>
  </outline>
</glyph>
<glyph name="Thorn" format="1">
  <advance width="477"/>
  <unicode hex="00DE"/>
  <outline>
    <contour>
      <point x="472" y="379" type="curve" smooth="yes"/>
      <point x="472" y="214"/>
      <point x="378" y="133"/>
      <point x="225" y="133" type="curve" smooth="yes"/>
      <point x="220" y="133" type="line"/>
      <point x="220" y="0" type="line"/>
      <point x="27" y="0" type="line"/>
      <point x="27" y="720" type="line"/>
      <point x="220" y="720" type="line"/>
      <point x="220" y="608" type="line"/>
      <point x="223" y="608" type="line" smooth="yes"/>
      <point x="377" y="608"/>
      <point x="472" y="535"/>
    </contour>
    <contour>
      <point x="287" y="375" type="curve" smooth="yes"/>
      <point x="287" y="435"/>
      <point x="266" y="466"/>
      <point x="222" y="466" type="curve" smooth="yes"/>
      <point x="218" y="466" type="line"/>
      <point x="218" y="278" type="line"/>
      <point x="222" y="278" type="line" smooth="yes"/>
      <point x="268" y="278"/>
      <point x="287" y="315"/>
    </contour>
  </outline>
</glyph>
<glyph name="germandbls" format="1">
  <advance width="537"/>
  <unicode hex="00DF"/>
  <outline>
    <contour>
      <point x="524" y="201" type="curve" smooth="yes"/>
      <point x="524" y="59"/>
      <point x="459" y="-8"/>
      <point x="343" y="-8" type="curve" smooth="yes"/>
      <point x="302" y="-8"/>
      <point x="281" y="-5"/>
      <point x="259" y="1" type="curve"/>
      <point x="268" y="133" type="line"/>
      <point x="277" y="130"/>
      <point x="286" y="129"/>
      <point x="294" y="129" type="curve" smooth="yes"/>
      <point x="323" y="129"/>
      <point x="341" y="149"/>
      <point x="341" y="205" type="curve" smooth="yes"/>
      <point x="341" y="275"/>
      <point x="319" y="320"/>
      <point x="263" y="348" type="curve"/>
      <point x="263" y="469" type="line"/>
      <point x="291" y="477"/>
      <point x="304" y="511"/>
      <point x="304" y="559" type="curve" smooth="yes"/>
      <point x="304" y="605"/>
      <point x="295" y="632"/>
      <point x="264" y="632" type="curve" smooth="yes"/>
      <point x="225" y="632"/>
      <point x="222" y="596"/>
      <point x="222" y="535" type="curve" smooth="yes"/>
      <point x="222" y="0" type="line"/>
      <point x="26" y="0" type="line"/>
      <point x="26" y="512" type="line" smooth="yes"/>
      <point x="26" y="683"/>
      <point x="130" y="759"/>
      <point x="264" y="759" type="curve" smooth="yes"/>
      <point x="401" y="759"/>
      <point x="484" y="687"/>
      <point x="484" y="573" type="curve" smooth="yes"/>
      <point x="484" y="472"/>
      <point x="430" y="432"/>
      <point x="401" y="417" type="curve"/>
      <point x="401" y="411" type="line"/>
      <point x="474" y="372"/>
      <point x="524" y="306"/>
    </contour>
  </outline>
</glyph>
<glyph name="ae" format="1">
  <advance width="693"/>
  <unicode hex="00E6"/>
  <outline>
    <contour>
      <point x="676" y="222" type="line"/>
      <point x="427" y="222" type="line"/>
      <point x="424" y="222" type="line"/>
      <point x="423" y="151"/>
      <point x="457" y="129"/>
      <point x="515" y="129" type="curve" smooth="yes"/>
      <point x="550" y="129"/>
      <point x="601" y="144"/>
      <point x="649" y="168" type="curve"/>
      <point x="684" y="43" type="line"/>
      <point x="621" y="11"/>
      <point x="557" y="-7"/>
      <point x="477" y="-7" type="curve" smooth="yes"/>
      <point x="396" y="-7"/>
      <point x="332" y="23"/>
      <point x="302" y="67" type="curve"/>
      <point x="296" y="67" type="line"/>
      <point x="260" y="24"/>
      <point x="197" y="-5"/>
      <point x="136" y="-5" type="curve" smooth="yes"/>
      <point x="67" y="-5"/>
      <point x="6" y="36"/>
      <point x="6" y="141" type="curve" smooth="yes"/>
      <point x="6" y="246"/>
      <point x="79" y="307"/>
      <point x="243" y="325" type="curve"/>
      <point x="243" y="365" type="line" smooth="yes"/>
      <point x="243" y="396"/>
      <point x="227" y="416"/>
      <point x="197" y="416" type="curve" smooth="yes"/>
      <point x="167" y="416"/>
      <point x="129" y="407"/>
      <point x="71" y="373" type="curve"/>
      <point x="24" y="483" type="line"/>
      <point x="94" y="524"/>
      <point x="170" y="548"/>
      <point x="248" y="548" type="curve" smooth="yes"/>
      <point x="316" y="548"/>
      <point x="343" y="515"/>
      <point x="348" y="492" type="curve"/>
      <point x="354" y="492" type="line"/>
      <point x="372" y="524"/>
      <point x="422" y="552"/>
      <point x="472" y="552" type="curve" smooth="yes"/>
      <point x="603" y="552"/>
      <point x="676" y="455"/>
      <point x="676" y="287" type="curve" smooth="yes"/>
    </contour>
    <contour>
      <point x="508" y="297" type="line"/>
      <point x="508" y="417"/>
      <point x="494" y="437"/>
      <point x="466" y="437" type="curve" smooth="yes"/>
      <point x="439" y="437"/>
      <point x="424" y="415"/>
      <point x="424" y="297" type="curve"/>
      <point x="428" y="297" type="line"/>
    </contour>
    <contour>
      <point x="268" y="125" type="curve"/>
      <point x="259" y="148"/>
      <point x="250" y="193"/>
      <point x="250" y="248" type="curve" smooth="yes"/>
      <point x="250" y="251"/>
      <point x="250" y="254"/>
      <point x="250" y="257" type="curve"/>
      <point x="193" y="242"/>
      <point x="179" y="210"/>
      <point x="179" y="167" type="curve" smooth="yes"/>
      <point x="179" y="122"/>
      <point x="201" y="109"/>
      <point x="223" y="109" type="curve" smooth="yes"/>
      <point x="242" y="109"/>
      <point x="262" y="118"/>
    </contour>
  </outline>
</glyph>
<glyph name="ccedilla" format="1">
  <advance width="426"/>
  <unicode hex="00E7"/>
  <outline>
    <contour>
      <point x="418" y="189" type="line"/>
      <point x="405" y="66"/>
      <point x="354" y="-2"/>
      <point x="242" y="-9" type="curve"/>
      <point x="220" y="-41" type="line"/>
      <point x="228" y="-40"/>
      <point x="245" y="-38"/>
      <point x="260" y="-38" type="curve" smooth="yes"/>
      <point x="305" y="-38"/>
      <point x="337" y="-56"/>
      <point x="337" y="-95" type="curve" smooth="yes"/>
      <point x="337" y="-163"/>
      <point x="275" y="-195"/>
      <point x="97" y="-191" type="curve"/>
      <point x="97" y="-156" type="line"/>
      <point x="212" y="-156"/>
      <point x="247" y="-142"/>
      <point x="247" y="-120" type="curve" smooth="yes"/>
      <point x="247" y="-108"/>
      <point x="238" y="-102"/>
      <point x="220" y="-102" type="curve" smooth="yes"/>
      <point x="206" y="-102"/>
      <point x="190" y="-106"/>
      <point x="175" y="-112" type="curve"/>
      <point x="143" y="-88" type="line"/>
      <point x="197" y="-9" type="line"/>
      <point x="83" y="2"/>
      <point x="16" y="92"/>
      <point x="16" y="242" type="curve" smooth="yes"/>
      <point x="16" y="300" type="line" smooth="yes"/>
      <point x="16" y="460"/>
      <point x="99" y="552"/>
      <point x="226" y="552" type="curve" smooth="yes"/>
      <point x="352" y="552"/>
      <point x="409" y="469"/>
      <point x="417" y="353" type="curve"/>
      <point x="260" y="325" type="line"/>
      <point x="259" y="408"/>
      <point x="249" y="428"/>
      <point x="230" y="428" type="curve" smooth="yes"/>
      <point x="209" y="428"/>
      <point x="199" y="405"/>
      <point x="199" y="313" type="curve" smooth="yes"/>
      <point x="199" y="229" type="line" smooth="yes"/>
      <point x="199" y="137"/>
      <point x="210" y="114"/>
      <point x="230" y="114" type="curve" smooth="yes"/>
      <point x="250" y="114"/>
      <point x="262" y="134"/>
      <point x="267" y="216" type="curve"/>
    </contour>
  </outline>
</glyph>
<glyph name="eth" format="1">
  <advance width="452"/>
  <unicode hex="00F0"/>
  <outline>
    <contour>
      <point x="446" y="253" type="line" smooth="yes"/>
      <point x="446" y="68"/>
      <point x="356" y="-10"/>
      <point x="225" y="-10" type="curve" smooth="yes"/>
      <point x="94" y="-10"/>
      <point x="18" y="68"/>
      <point x="18" y="253" type="curve" smooth="yes"/>
      <point x="18" y="288" type="line" smooth="yes"/>
      <point x="18" y="473"/>
      <point x="77" y="542"/>
      <point x="176" y="542" type="curve" smooth="yes"/>
      <point x="212" y="542"/>
      <point x="246" y="522"/>
      <point x="269" y="471" type="curve"/>
      <point x="275" y="471" type="line"/>
      <point x="267" y="513"/>
      <point x="242" y="564"/>
      <point x="205" y="612" type="curve"/>
      <point x="112" y="571" type="line"/>
      <point x="112" y="638" type="line"/>
      <point x="163" y="660" type="line"/>
      <point x="143" y="680"/>
      <point x="121" y="699"/>
      <point x="97" y="715" type="curve"/>
      <point x="244" y="762" type="line"/>
      <point x="262" y="748"/>
      <point x="279" y="733"/>
      <point x="295" y="716" type="curve"/>
      <point x="401" y="762" type="line"/>
      <point x="401" y="699" type="line"/>
      <point x="335" y="670" type="line"/>
      <point x="402" y="583"/>
      <point x="446" y="467"/>
      <point x="446" y="324" type="curve" smooth="yes"/>
    </contour>
    <contour>
      <point x="266" y="252" type="curve" smooth="yes"/>
      <point x="266" y="289" type="line" smooth="yes"/>
      <point x="266" y="414"/>
      <point x="256" y="432"/>
      <point x="232" y="432" type="curve" smooth="yes"/>
      <point x="208" y="432"/>
      <point x="198" y="414"/>
      <point x="198" y="289" type="curve" smooth="yes"/>
      <point x="198" y="252" type="line" smooth="yes"/>
      <point x="198" y="128"/>
      <point x="208" y="110"/>
      <point x="232" y="110" type="curve" smooth="yes"/>
      <point x="256" y="110"/>
      <point x="266" y="126"/>
    </contour>
  </outline>
</glyph>
<glyph name="divide" format="1">
  <advance width="479"/>
  <unicode hex="00F7"/>
  <outline>
    <contour>
      <point x="336" y="584" type="curve" smooth="yes"/>
      <point x="336" y="529"/>
      <point x="294" y="487"/>
      <point x="239" y="487" type="curve" smooth="yes"/>
      <point x="184" y="487"/>
      <point x="142" y="529"/>
      <point x="142" y="584" type="curve" smooth="yes"/>
      <point x="142" y="639"/>
      <point x="184" y="681"/>
      <point x="239" y="681" type="curve" smooth="yes"/>
      <point x="294" y="681"/>
      <point x="336" y="639"/>
    </contour>
    <contour>
      <point x="457" y="280" type="line"/>
      <point x="22" y="280" type="line"/>
      <point x="22" y="429" type="line"/>
      <point x="457" y="429" type="line"/>
    </contour>
    <contour>
      <point x="336" y="125" type="curve" smooth="yes"/>
      <point x="336" y="70"/>
      <point x="294" y="28"/>
      <point x="239" y="28" type="curve" smooth="yes"/>
      <point x="184" y="28"/>
      <point x="142" y="70"/>
      <point x="142" y="125" type="curve" smooth="yes"/>
      <point x="142" y="180"/>
      <point x="184" y="222"/>
      <point x="239" y="222" type="curve" smooth="yes"/>
      <point x="294" y="222"/>
      <point x="336" y="180"/>
    </contour>
  </outline>
</glyph>
<glyph name="oslash" format="1">
  <advance width="466"/>
  <unicode hex="00F8"/>
  <outline>
    <contour>
      <point x="441" y="637" type="line"/>
      <point x="377" y="503" type="line"/>
      <point x="424" y="460"/>
      <point x="450" y="391"/>
      <point x="450" y="300" type="curve" smooth="yes"/>
      <point x="450" y="242" type="line" smooth="yes"/>
      <point x="450" y="82"/>
      <point x="370" y="-10"/>
      <point x="233" y="-10" type="curve" smooth="yes"/>
      <point x="205" y="-10"/>
      <point x="179" y="-6"/>
      <point x="156" y="1" type="curve"/>
      <point x="118" y="-95" type="line"/>
      <point x="28" y="-95" type="line"/>
      <point x="91" y="38" type="line"/>
      <point x="42" y="81"/>
      <point x="16" y="150"/>
      <point x="16" y="242" type="curve" smooth="yes"/>
      <point x="16" y="300" type="line" smooth="yes"/>
      <point x="16" y="460"/>
      <point x="96" y="552"/>
      <point x="233" y="552" type="curve" smooth="yes"/>
      <point x="262" y="552"/>
      <point x="289" y="548"/>
      <point x="313" y="540" type="curve"/>
      <point x="351" y="637" type="line"/>
    </contour>
    <contour>
      <point x="261" y="409" type="line"/>
      <point x="256" y="429"/>
      <point x="247" y="436"/>
      <point x="233" y="436" type="curve" smooth="yes"/>
      <point x="205" y="436"/>
      <point x="198" y="408"/>
      <point x="198" y="314" type="curve" smooth="yes"/>
      <point x="198" y="254" type="line"/>
      <point x="198" y="250" type="line"/>
    </contour>
    <contour>
      <point x="268" y="228" type="curve" smooth="yes"/>
      <point x="268" y="279" type="line"/>
      <point x="268" y="284" type="line"/>
      <point x="206" y="128" type="line"/>
      <point x="211" y="112"/>
      <point x="220" y="106"/>
      <point x="233" y="106" type="curve" smooth="yes"/>
      <point x="261" y="106"/>
      <point x="268" y="134"/>
    </contour>
  </outline>
</glyph>
<glyph name="oe" format="1">
  <advance width="714"/>
  <unicode hex="0153"/>
  <outline>
    <contour>
      <point x="697" y="222" type="line"/>
      <point x="448" y="222" type="line"/>
      <point x="445" y="222" type="line"/>
      <point x="448" y="147"/>
      <point x="478" y="129"/>
      <point x="536" y="129" type="curve" smooth="yes"/>
      <point x="571" y="129"/>
      <point x="622" y="144"/>
      <point x="670" y="168" type="curve"/>
      <point x="705" y="43" type="line"/>
      <point x="642" y="11"/>
      <point x="574" y="-7"/>
      <point x="504" y="-7" type="curve" smooth="yes"/>
      <point x="441" y="-7"/>
      <point x="388" y="19"/>
      <point x="366" y="60" type="curve"/>
      <point x="361" y="60" type="line"/>
      <point x="340" y="20"/>
      <point x="293" y="-10"/>
      <point x="228" y="-10" type="curve" smooth="yes"/>
      <point x="98" y="-10"/>
      <point x="16" y="82"/>
      <point x="16" y="242" type="curve" smooth="yes"/>
      <point x="16" y="300" type="line" smooth="yes"/>
      <point x="16" y="460"/>
      <point x="98" y="552"/>
      <point x="228" y="552" type="curve" smooth="yes"/>
      <point x="284" y="552"/>
      <point x="345" y="522"/>
      <point x="358" y="484" type="curve"/>
      <point x="362" y="484" type="line"/>
      <point x="379" y="525"/>
      <point x="440" y="552"/>
      <point x="494" y="552" type="curve" smooth="yes"/>
      <point x="622" y="552"/>
      <point x="697" y="455"/>
      <point x="697" y="287" type="curve" smooth="yes"/>
    </contour>
    <contour>
      <point x="529" y="297" type="line"/>
      <point x="529" y="417"/>
      <point x="515" y="437"/>
      <point x="487" y="437" type="curve" smooth="yes"/>
      <point x="460" y="437"/>
      <point x="445" y="415"/>
      <point x="445" y="297" type="curve"/>
      <point x="448" y="297" type="line"/>
    </contour>
    <contour>
      <point x="267" y="229" type="curve" smooth="yes"/>
      <point x="267" y="313" type="line" smooth="yes"/>
      <point x="267" y="405"/>
      <point x="260" y="432"/>
      <point x="233" y="432" type="curve" smooth="yes"/>
      <point x="206" y="432"/>
      <point x="199" y="405"/>
      <point x="199" y="313" type="curve" smooth="yes"/>
      <point x="199" y="229" type="line" smooth="yes"/>
      <point x="199" y="137"/>
      <point x="206" y="110"/>
      <point x="233" y="110" type="curve" smooth="yes"/>
      <point x="260" y="110"/>
      <point x="267" y="137"/>
    </contour>
  </outline>
</glyph>
<glyph name="florin" format="1">
  <advance width="462"/>
  <unicode hex="0192"/>
  <outline>
    <contour>
      <point x="450" y="711" type="curve"/>
      <point x="449" y="578" type="line"/>
      <point x="427" y="583"/>
      <point x="409" y="586"/>
      <point x="382" y="586" type="curve" smooth="yes"/>
      <point x="347" y="586"/>
      <point x="330" y="568"/>
      <point x="324" y="526" type="curve" smooth="yes"/>
      <point x="317" y="477" type="line"/>
      <point x="418" y="477" type="line"/>
      <point x="400" y="343" type="line"/>
      <point x="298" y="343" type="line"/>
      <point x="246" y="-13" type="line" smooth="yes"/>
      <point x="227" y="-141"/>
      <point x="149" y="-190"/>
      <point x="52" y="-190" type="curve" smooth="yes"/>
      <point x="7" y="-190"/>
      <point x="-26" y="-186"/>
      <point x="-53" y="-180" type="curve"/>
      <point x="-34" y="-48" type="line"/>
      <point x="-21" y="-50"/>
      <point x="-8" y="-51"/>
      <point x="9" y="-51" type="curve" smooth="yes"/>
      <point x="44" y="-51"/>
      <point x="61" y="-37"/>
      <point x="67" y="5" type="curve" smooth="yes"/>
      <point x="117" y="343" type="line"/>
      <point x="43" y="343" type="line"/>
      <point x="61" y="477" type="line"/>
      <point x="136" y="477" type="line"/>
      <point x="146" y="549" type="line" smooth="yes"/>
      <point x="164" y="677"/>
      <point x="225" y="726"/>
      <point x="322" y="726" type="curve" smooth="yes"/>
      <point x="380" y="726"/>
      <point x="418" y="719"/>
    </contour>
  </outline>
</glyph>
<glyph name="breve" format="1">
  <advance width="400"/>
  <unicode hex="02D8"/>
  <outline>
    <contour>
      <point x="340" y="720" type="line"/>
      <point x="338" y="632"/>
      <point x="299" y="579"/>
      <point x="200" y="579" type="curve" smooth="yes"/>
      <point x="101" y="579"/>
      <point x="62" y="632"/>
      <point x="60" y="720" type="curve"/>
      <point x="126" y="720" type="line"/>
      <point x="133" y="685"/>
      <point x="158" y="667"/>
      <point x="200" y="667" type="curve" smooth="yes"/>
      <point x="242" y="667"/>
      <point x="267" y="685"/>
      <point x="274" y="720" type="curve"/>
    </contour>
  </outline>
</glyph>
<glyph name="dotaccent" format="1">
  <advance width="400"/>
  <unicode hex="02D9"/>
  <outline>
    <contour>
      <point x="269" y="582" type="line"/>
      <point x="131" y="582" type="line"/>
      <point x="131" y="720" type="line"/>
      <point x="269" y="720" type="line"/>
    </contour>
  </outline>
</glyph>
<glyph name="tilde" format="1">
  <advance width="400"/>
  <unicode hex="02DC"/>
  <outline>
    <contour>
      <point x="349" y="723" type="line"/>
      <point x="355" y="625"/>
      <point x="329" y="581"/>
      <point x="266" y="581" type="curve" smooth="yes"/>
      <point x="209" y="581"/>
      <point x="177" y="622"/>
      <point x="149" y="622" type="curve" smooth="yes"/>
      <point x="132" y="622"/>
      <point x="125" y="611"/>
      <point x="124" y="582" type="curve"/>
      <point x="51" y="582" type="line"/>
      <point x="44" y="681"/>
      <point x="71" y="725"/>
      <point x="134" y="725" type="curve" smooth="yes"/>
      <point x="191" y="725"/>
      <point x="223" y="684"/>
      <point x="250" y="684" type="curve" smooth="yes"/>
      <point x="267" y="684"/>
      <point x="275" y="695"/>
      <point x="276" y="723" type="curve"/>
    </contour>
  </outline>
</glyph>
<glyph name="hungarumlaut" format="1">
  <advance width="400"/>
  <unicode hex="02DD"/>
  <outline>
    <contour>
      <point x="413" y="720" type="line"/>
      <point x="285" y="582" type="line"/>
      <point x="182" y="582" type="line"/>
      <point x="239" y="720" type="line"/>
    </contour>
    <contour>
      <point x="227" y="720" type="line"/>
      <point x="98" y="582" type="line"/>
      <point x="-4" y="582" type="line"/>
      <point x="53" y="720" type="line"/>
    </contour>
  </outline>
</glyph>
<glyph name="endash" format="1">
  <advance width="407"/>
  <unicode hex="2013"/>
  <outline>
    <contour>
      <point x="383" y="220" type="line"/>
      <point x="24" y="220" type="line"/>
      <point x="24" y="366" type="line"/>
      <point x="383" y="366" type="line"/>
    </contour>
  </outline>
</glyph>
<glyph name="emdash" format="1">
  <advance width="815"/>
  <unicode hex="2014"/>
  <outline>
    <contour>
      <point x="791" y="220" type="line"/>
      <point x="24" y="220" type="line"/>
      <point x="24" y="366" type="line"/>
      <point x="791" y="366" type="line"/>
    </contour>
  </outline>
</glyph>
<glyph name="quoteleft" format="1">
  <advance width="238"/>
  <unicode hex="2018"/>
  <unicode hex="02BB"/>
  <outline>
    <contour>
      <point x="214" y="429" type="line"/>
      <point x="131" y="429" type="line"/>
      <point x="15" y="720" type="line"/>
      <point x="192" y="720" type="line"/>
    </contour>
  </outline>
</glyph>
<glyph name="quotesinglbase" format="1">
  <advance width="238"/>
  <unicode hex="201A"/>
  <outline>
    <contour>
      <point x="223" y="178" type="line"/>
      <point x="107" y="-113" type="line"/>
      <point x="24" y="-113" type="line"/>
      <point x="46" y="178" type="line"/>
    </contour>
  </outline>
</glyph>
<glyph name="quotedblright" format="1">
  <advance width="440"/>
  <unicode hex="201D"/>
  <outline>
    <contour>
      <point x="425" y="720" type="line"/>
      <point x="309" y="429" type="line"/>
      <point x="231" y="429" type="line"/>
      <point x="253" y="720" type="line"/>
    </contour>
    <contour>
      <point x="218" y="720" type="line"/>
      <point x="102" y="429" type="line"/>
      <point x="24" y="429" type="line"/>
      <point x="46" y="720" type="line"/>
    </contour>
  </outline>
</glyph>
<glyph name="quotedblbase" format="1">
  <advance width="440"/>
  <unicode hex="201E"/>
  <outline>
    <contour>
      <point x="425" y="178" type="line"/>
      <point x="309" y="-113" type="line"/>
      <point x="231" y="-113" type="line"/>
      <point x="253" y="178" type="line"/>
    </contour>
    <contour>
      <point x="218" y="178" type="line"/>
      <point x="102" y="-113" type="line"/>
      <point x="24" y="-113" type="line"/>
      <point x="46" y="178" type="line"/>
    </contour>
  </outline>
</glyph>
<glyph name="daggerdbl" format="1">
  <advance width="428"/>
  <unicode hex="2021"/>
  <outline>
    <contour>
      <point x="405" y="130" type="line"/>
      <point x="257" y="177" type="line"/>
      <point x="300" y="0" type="line"/>
      <point x="128" y="0" type="line"/>
      <point x="171" y="177" type="line"/>
      <point x="23" y="130" type="line"/>
      <point x="23" y="281" type="line"/>
      <point x="171" y="235" type="line"/>
      <point x="131" y="360" type="line"/>
      <point x="171" y="485" type="line"/>
      <point x="23" y="439" type="line"/>
      <point x="23" y="590" type="line"/>
      <point x="171" y="543" type="line"/>
      <point x="128" y="720" type="line"/>
      <point x="300" y="720" type="line"/>
      <point x="257" y="543" type="line"/>
      <point x="405" y="590" type="line"/>
      <point x="405" y="439" type="line"/>
      <point x="257" y="485" type="line"/>
      <point x="297" y="360" type="line"/>
      <point x="257" y="235" type="line"/>
      <point x="405" y="281" type="line"/>
    </contour>
  </outline>
</glyph>
<glyph name="guilsinglleft" format="1">
  <advance width="252"/>
  <unicode hex="2039"/>
  <outline>
    <contour>
      <point x="232" y="65" type="line"/>
      <point x="143" y="65" type="line"/>
      <point x="8" y="271" type="line"/>
      <point x="143" y="477" type="line"/>
      <point x="232" y="477" type="line"/>
      <point x="178" y="271" type="line"/>
    </contour>
  </outline>
</glyph>
<glyph name="guilsinglright" format="1">
  <advance width="253"/>
  <unicode hex="203A"/>
  <outline>
    <contour>
      <point x="245" y="271" type="line"/>
      <point x="110" y="65" type="line"/>
      <point x="20" y="65" type="line"/>
      <point x="75" y="271" type="line"/>
      <point x="20" y="477" type="line"/>
      <point x="110" y="477" type="line"/>
    </contour>
  </outline>
</glyph>
<glyph name="fraction" format="1">
  <advance width="342"/>
  <unicode hex="2044"/>
  <outline>
    <contour>
      <point x="401" y="735" type="line"/>
      <point x="91" y="-15" type="line"/>
      <point x="-59" y="-15" type="line"/>
      <point x="251" y="735" type="line"/>
    </contour>
  </outline>
</glyph>
<glyph name="uni2117" format="1">
  <advance width="652"/>
  <unicode hex="2117"/>
  <outline>
    <contour>
      <point x="629" y="361" type="curve" smooth="yes"/>
      <point x="629" y="149"/>
      <point x="500" y="-12"/>
      <point x="325" y="-12" type="curve" smooth="yes"/>
      <point x="151" y="-12"/>
      <point x="23" y="145"/>
      <point x="23" y="359" type="curve" smooth="yes"/>
      <point x="23" y="573"/>
      <point x="152" y="732"/>
      <point x="327" y="732" type="curve" smooth="yes"/>
      <point x="501" y="732"/>
      <point x="629" y="573"/>
    </contour>
    <contour>
      <point x="589" y="359" type="curve" smooth="yes"/>
      <point x="589" y="545"/>
      <point x="485" y="694"/>
      <point x="325" y="694" type="curve" smooth="yes"/>
      <point x="166" y="694"/>
      <point x="63" y="547"/>
      <point x="63" y="361" type="curve" smooth="yes"/>
      <point x="63" y="175"/>
      <point x="167" y="26"/>
      <point x="327" y="26" type="curve" smooth="yes"/>
      <point x="486" y="26"/>
      <point x="589" y="173"/>
    </contour>
    <contour>
      <point x="484" y="443" type="curve" smooth="yes"/>
      <point x="484" y="344"/>
      <point x="428" y="295"/>
      <point x="336" y="295" type="curve" smooth="yes"/>
      <point x="333" y="295" type="line"/>
      <point x="333" y="148" type="line"/>
      <point x="217" y="148" type="line"/>
      <point x="217" y="580" type="line"/>
      <point x="335" y="580" type="line" smooth="yes"/>
      <point x="427" y="580"/>
      <point x="484" y="536"/>
    </contour>
    <contour>
      <point x="373" y="440" type="curve" smooth="yes"/>
      <point x="373" y="476"/>
      <point x="361" y="495"/>
      <point x="334" y="495" type="curve" smooth="yes"/>
      <point x="332" y="495" type="line"/>
      <point x="332" y="382" type="line"/>
      <point x="334" y="382" type="line" smooth="yes"/>
      <point x="362" y="382"/>
      <point x="373" y="404"/>
    </contour>
  </outline>
</glyph>
<glyph name="trademark" format="1">
  <advance width="610"/>
  <unicode hex="2122"/>
  <outline>
    <contour>
      <point x="587" y="381" type="line"/>
      <point x="500" y="381" type="line"/>
      <point x="500" y="612" type="line"/>
      <point x="498" y="612" type="line"/>
      <point x="465" y="381" type="line"/>
      <point x="370" y="381" type="line"/>
      <point x="337" y="612" type="line"/>
      <point x="335" y="612" type="line"/>
      <point x="335" y="381" type="line"/>
      <point x="254" y="381" type="line"/>
      <point x="254" y="719" type="line"/>
      <point x="391" y="719" type="line"/>
      <point x="420" y="499" type="line"/>
      <point x="422" y="499" type="line"/>
      <point x="451" y="719" type="line"/>
      <point x="587" y="719" type="line"/>
    </contour>
    <contour>
      <point x="234" y="642" type="line"/>
      <point x="172" y="642" type="line"/>
      <point x="172" y="383" type="line"/>
      <point x="78" y="383" type="line"/>
      <point x="78" y="642" type="line"/>
      <point x="17" y="642" type="line"/>
      <point x="17" y="720" type="line"/>
      <point x="234" y="720" type="line"/>
    </contour>
  </outline>
</glyph>
<glyph name="radical" format="1">
  <advance width="540"/>
  <unicode hex="221A"/>
  <outline>
    <contour>
      <point x="533" y="720" type="line"/>
      <point x="363" y="-4" type="line"/>
      <point x="127" y="-4" type="line"/>
      <point x="5" y="340" type="line"/>
      <point x="191" y="340" type="line"/>
      <point x="240" y="160" type="line"/>
      <point x="335" y="720" type="line"/>
    </contour>
  </outline>
</glyph>
<glyph name="bullet" format="1">
  <advance width="400"/>
  <outline>
    <contour>
      <point x="372" y="373" type="curve" smooth="yes"/>
      <point x="372" y="277"/>
      <point x="296" y="201"/>
      <point x="200" y="201" type="curve" smooth="yes"/>
      <point x="104" y="201"/>
      <point x="28" y="277"/>
      <point x="28" y="373" type="curve" smooth="yes"/>
      <point x="28" y="469"/>
      <point x="104" y="545"/>
      <point x="200" y="545" type="curve" smooth="yes"/>
      <point x="296" y="545"/>
      <point x="372" y="469"/>
    </contour>
  </outline>
</glyph>
<glyph name="macron" format="1">
  <advance width="400"/>
  <outline>
    <contour>
      <point x="327" y="608" type="line"/>
      <point x="73" y="608" type="line"/>
      <point x="73" y="705" type="line"/>
      <point x="327" y="705" type="line"/>
    </contour>
  </outline>
</glyph>
<glyph name="registered" format="1">
  <advance width="402"/>
  <outline>
    <contour>
      <point x="383" y="503" type="curve" smooth="yes"/>
      <point x="383" y="375"/>
      <point x="305" y="279"/>
      <point x="200" y="279" type="curve" smooth="yes"/>
      <point x="96" y="279"/>
      <point x="19" y="373"/>
      <point x="19" y="501" type="curve" smooth="yes"/>
      <point x="19" y="630"/>
      <point x="97" y="725"/>
      <point x="202" y="725" type="curve" smooth="yes"/>
      <point x="306" y="725"/>
      <point x="383" y="630"/>
    </contour>
    <contour>
      <point x="359" y="501" type="curve" smooth="yes"/>
      <point x="359" y="613"/>
      <point x="296" y="702"/>
      <point x="200" y="702" type="curve" smooth="yes"/>
      <point x="105" y="702"/>
      <point x="43" y="614"/>
      <point x="43" y="503" type="curve" smooth="yes"/>
      <point x="43" y="391"/>
      <point x="106" y="302"/>
      <point x="202" y="302" type="curve" smooth="yes"/>
      <point x="297" y="302"/>
      <point x="359" y="390"/>
    </contour>
    <contour>
      <point x="295" y="378" type="line"/>
      <point x="224" y="378" type="line"/>
      <point x="197" y="471" type="line"/>
      <point x="193" y="471" type="line"/>
      <point x="193" y="378" type="line"/>
      <point x="124" y="378" type="line"/>
      <point x="124" y="637" type="line"/>
      <point x="201" y="637" type="line" smooth="yes"/>
      <point x="252" y="637"/>
      <point x="287" y="612"/>
      <point x="287" y="558" type="curve" smooth="yes"/>
      <point x="287" y="527"/>
      <point x="276" y="505"/>
      <point x="257" y="491" type="curve"/>
    </contour>
    <contour>
      <point x="221" y="554" type="curve" smooth="yes"/>
      <point x="221" y="576"/>
      <point x="213" y="588"/>
      <point x="196" y="588" type="curve" smooth="yes"/>
      <point x="193" y="588" type="line"/>
      <point x="193" y="517" type="line"/>
      <point x="196" y="517" type="line" smooth="yes"/>
      <point x="213" y="517"/>
      <point x="221" y="532"/>
    </contour>
  </outline>
</glyph>
